<svg width="93" height="93" viewBox="0 0 93 93" fill="none" xmlns="http://www.w3.org/2000/svg">
<path d="M46.5 7.75L58.4738 32.0075L85.25 35.9213L65.875 54.7925L70.4475 81.4525L46.5 68.8587L22.5525 81.4525L27.125 54.7925L7.75 35.9213L34.5262 32.0075L46.5 7.75Z" stroke="#68C84C" stroke-width="4" stroke-linecap="round" stroke-linejoin="round"/>
<path d="M53.8281 40.7812C54.3281 40.875 54.7656 40.9427 55.1406 40.9844C55.5156 41.026 55.8333 41.0573 56.0938 41.0781C56.3958 41.099 56.6562 41.1042 56.875 41.0938C57.0938 41.0938 57.3698 41.0781 57.7031 41.0469C57.9844 41.026 58.3385 41 58.7656 40.9688C59.2031 40.9271 59.7188 40.8802 60.3125 40.8281C60.2812 41.1094 60.25 41.3646 60.2188 41.5938C60.1979 41.8125 60.1771 42 60.1562 42.1562C60.1354 42.3438 60.1198 42.5104 60.1094 42.6562C60.099 42.8125 60.0833 42.9896 60.0625 43.1875C60.0417 43.3646 60.0208 43.5833 60 43.8438C59.9896 44.1042 59.9792 44.4062 59.9688 44.75C59.5729 44.0938 59.2135 43.5885 58.8906 43.2344C58.5677 42.8698 58.2865 42.599 58.0469 42.4219C57.776 42.224 57.5312 42.1042 57.3125 42.0625H56.6719C56.4844 42.0625 56.2812 42.0677 56.0625 42.0781C55.8438 42.0885 55.6458 42.1094 55.4688 42.1406L55.5312 45.8281C55.7396 45.5677 55.9688 45.375 56.2188 45.25C56.4688 45.125 56.7135 45.0365 56.9531 44.9844C57.224 44.9323 57.5 44.9115 57.7812 44.9219C58.5104 44.9844 59.0729 45.1094 59.4688 45.2969C59.875 45.4844 60.1667 45.7604 60.3438 46.125C60.4271 46.3125 60.4948 46.599 60.5469 46.9844C60.6094 47.3594 60.6302 47.7656 60.6094 48.2031C60.5885 48.6406 60.5208 49.0729 60.4062 49.5C60.2917 49.9167 60.1094 50.2552 59.8594 50.5156C59.6094 50.7656 59.3646 50.974 59.125 51.1406C58.8854 51.2969 58.6458 51.4271 58.4062 51.5312C58.1667 51.625 57.9167 51.6927 57.6562 51.7344C57.3958 51.776 57.1198 51.8073 56.8281 51.8281C56.3594 51.8594 55.9115 51.8073 55.4844 51.6719C55.0573 51.5365 54.6823 51.3542 54.3594 51.125C54.0365 50.8958 53.776 50.651 53.5781 50.3906C53.3802 50.1198 53.2708 49.875 53.25 49.6562C53.2292 49.4896 53.2188 49.3229 53.2188 49.1562C53.2188 49.0104 53.224 48.8594 53.2344 48.7031C53.2552 48.5469 53.2917 48.4115 53.3438 48.2969L57.3906 48.5781C56.9948 48.7031 56.6979 48.8385 56.5 48.9844C56.3021 49.1198 56.1615 49.25 56.0781 49.375C55.974 49.5208 55.9323 49.6667 55.9531 49.8125C56.026 50.1875 56.1562 50.4948 56.3438 50.7344C56.5312 50.9635 56.7448 51.0573 56.9844 51.0156C57.1094 50.9948 57.25 50.9115 57.4062 50.7656C57.5729 50.6094 57.7292 50.4167 57.875 50.1875C58.0312 49.9583 58.1667 49.7031 58.2812 49.4219C58.4062 49.1302 58.4844 48.8385 58.5156 48.5469C58.5469 48.2552 58.5677 47.9479 58.5781 47.625C58.599 47.3021 58.5885 47.0052 58.5469 46.7344C58.5052 46.4635 58.4323 46.2396 58.3281 46.0625C58.224 45.875 58.0729 45.7812 57.875 45.7812C57.7083 45.8021 57.5208 45.8698 57.3125 45.9844C57.1354 46.0885 56.9219 46.2448 56.6719 46.4531C56.4323 46.6615 56.1615 46.9635 55.8594 47.3594C55.651 47.3073 55.474 47.2552 55.3281 47.2031C55.1927 47.1406 55.0781 47.0885 54.9844 47.0469C54.8698 47.0052 54.7812 46.9583 54.7188 46.9062C54.6562 46.8646 54.5729 46.8125 54.4688 46.75C54.3854 46.6979 54.2812 46.6354 54.1562 46.5625C54.0312 46.4792 53.8802 46.3802 53.7031 46.2656C53.7448 45.8594 53.7708 45.5156 53.7812 45.2344C53.7917 44.9531 53.8021 44.724 53.8125 44.5469V44.0312C53.8021 43.8854 53.7969 43.6719 53.7969 43.3906C53.7969 43.151 53.7969 42.8229 53.7969 42.4062C53.7969 41.9792 53.8073 41.4375 53.8281 40.7812ZM48.7969 40.1875H49.9688C50.0521 40.1875 50.1406 40.1927 50.2344 40.2031C50.3177 40.2135 50.4062 40.224 50.5 40.2344C50.6042 40.2344 50.7135 40.2448 50.8281 40.2656C50.3281 41.1302 49.9062 41.8854 49.5625 42.5312C49.2188 43.1771 48.9323 43.7188 48.7031 44.1562C48.4323 44.6667 48.2083 45.099 48.0312 45.4531C47.8438 45.8281 47.6146 46.3177 47.3438 46.9219C47.1042 47.4427 46.7969 48.1146 46.4219 48.9375C46.0573 49.7604 45.6094 50.7656 45.0781 51.9531C44.9948 51.9531 44.9062 51.9583 44.8125 51.9688C44.7188 51.9688 44.6302 51.974 44.5469 51.9844C44.4427 51.9948 44.3438 52 44.25 52C44.1458 52 44.0365 52.0104 43.9219 52.0312C43.8177 52.0521 43.7031 52.0729 43.5781 52.0938C43.4531 52.1146 43.3177 52.1458 43.1719 52.1875C43.7344 51.1146 44.1979 50.2292 44.5625 49.5312C44.9271 48.8333 45.2135 48.2656 45.4219 47.8281C45.6719 47.3281 45.8646 46.9323 46 46.6406C46.2188 46.1719 46.4688 45.6146 46.75 44.9688C46.9896 44.4167 47.2812 43.7448 47.625 42.9531C47.9688 42.151 48.3594 41.2292 48.7969 40.1875ZM33.6719 40.7812C34.1719 40.875 34.6094 40.9427 34.9844 40.9844C35.3594 41.026 35.6771 41.0573 35.9375 41.0781C36.2396 41.099 36.5 41.1042 36.7188 41.0938C36.9375 41.0938 37.2135 41.0781 37.5469 41.0469C37.8281 41.026 38.1823 41 38.6094 40.9688C39.0469 40.9271 39.5625 40.8802 40.1562 40.8281C40.125 41.1094 40.0938 41.3646 40.0625 41.5938C40.0417 41.8125 40.0208 42 40 42.1562C39.9792 42.3438 39.9635 42.5104 39.9531 42.6562C39.9427 42.8125 39.9271 42.9896 39.9062 43.1875C39.8854 43.3646 39.8646 43.5833 39.8438 43.8438C39.8333 44.1042 39.8229 44.4062 39.8125 44.75C39.4167 44.0938 39.0573 43.5885 38.7344 43.2344C38.4115 42.8698 38.1302 42.599 37.8906 42.4219C37.6198 42.224 37.375 42.1042 37.1562 42.0625H36.5156C36.3281 42.0625 36.125 42.0677 35.9062 42.0781C35.6875 42.0885 35.4896 42.1094 35.3125 42.1406L35.375 45.8281C35.5833 45.5677 35.8125 45.375 36.0625 45.25C36.3125 45.125 36.5573 45.0365 36.7969 44.9844C37.0677 44.9323 37.3438 44.9115 37.625 44.9219C38.3542 44.9844 38.9167 45.1094 39.3125 45.2969C39.7188 45.4844 40.0104 45.7604 40.1875 46.125C40.2708 46.3125 40.3385 46.599 40.3906 46.9844C40.4531 47.3594 40.474 47.7656 40.4531 48.2031C40.4323 48.6406 40.3646 49.0729 40.25 49.5C40.1354 49.9167 39.9531 50.2552 39.7031 50.5156C39.4531 50.7656 39.2083 50.974 38.9688 51.1406C38.7292 51.2969 38.4896 51.4271 38.25 51.5312C38.0104 51.625 37.7604 51.6927 37.5 51.7344C37.2396 51.776 36.9635 51.8073 36.6719 51.8281C36.2031 51.8594 35.7552 51.8073 35.3281 51.6719C34.901 51.5365 34.526 51.3542 34.2031 51.125C33.8802 50.8958 33.6198 50.651 33.4219 50.3906C33.224 50.1198 33.1146 49.875 33.0938 49.6562C33.0729 49.4896 33.0625 49.3229 33.0625 49.1562C33.0625 49.0104 33.0677 48.8594 33.0781 48.7031C33.099 48.5469 33.1354 48.4115 33.1875 48.2969L37.2344 48.5781C36.8385 48.7031 36.5417 48.8385 36.3438 48.9844C36.1458 49.1198 36.0052 49.25 35.9219 49.375C35.8177 49.5208 35.776 49.6667 35.7969 49.8125C35.8698 50.1875 36 50.4948 36.1875 50.7344C36.375 50.9635 36.5885 51.0573 36.8281 51.0156C36.9531 50.9948 37.0938 50.9115 37.25 50.7656C37.4167 50.6094 37.5729 50.4167 37.7188 50.1875C37.875 49.9583 38.0104 49.7031 38.125 49.4219C38.25 49.1302 38.3281 48.8385 38.3594 48.5469C38.3906 48.2552 38.4115 47.9479 38.4219 47.625C38.4427 47.3021 38.4323 47.0052 38.3906 46.7344C38.349 46.4635 38.276 46.2396 38.1719 46.0625C38.0677 45.875 37.9167 45.7812 37.7188 45.7812C37.5521 45.8021 37.3646 45.8698 37.1562 45.9844C36.9792 46.0885 36.7656 46.2448 36.5156 46.4531C36.276 46.6615 36.0052 46.9635 35.7031 47.3594C35.4948 47.3073 35.3177 47.2552 35.1719 47.2031C35.0365 47.1406 34.9219 47.0885 34.8281 47.0469C34.7135 47.0052 34.625 46.9583 34.5625 46.9062C34.5 46.8646 34.4167 46.8125 34.3125 46.75C34.2292 46.6979 34.125 46.6354 34 46.5625C33.875 46.4792 33.724 46.3802 33.5469 46.2656C33.5885 45.8594 33.6146 45.5156 33.625 45.2344C33.6354 44.9531 33.6458 44.724 33.6562 44.5469V44.0312C33.6458 43.8854 33.6406 43.6719 33.6406 43.3906C33.6406 43.151 33.6406 42.8229 33.6406 42.4062C33.6406 41.9792 33.651 41.4375 33.6719 40.7812Z" fill="#304729"/>
</svg>
